<svg clip-rule="evenodd" fill-rule="evenodd" stroke-linejoin="round" stroke-miterlimit="2" viewBox="0 0 32 32" xmlns="http://www.w3.org/2000/svg"><g transform="translate(-384 -192)"><g transform="matrix(.917 0 0 1 47.25 -2)"><path d="m394.916 200.445c.998-.653 2.31-.74 3.4-.226s1.775 1.544 1.775 2.667v10.228c0 1.123-.685 2.153-1.775 2.667s-2.402.427-3.4-.226l-4.186-2.741c-.287-.188-.457-.491-.457-.814v-8c0-.323.17-.626.457-.814zm1.268 1.628-3.729 2.442v6.97l3.729 2.442c.333.218.77.247 1.133.076.364-.172.592-.515.592-.889v-10.228c0-.374-.228-.717-.592-.889-.363-.171-.8-.142-1.133.076zm-9.184.927c.602 0 1.091.448 1.091 1s-.489 1-1.091 1h-5.455c-.602 0-1.09-.448-1.09-1s.488-1 1.09-1z" fill="#ee243a"/></g><g transform="matrix(1.25 0 0 1 -96.75 -2)"><path d="m389.4 218h-.8c-.637 0-1.247-.316-1.697-.879-.45-.562-.703-1.325-.703-2.121v-14c0-.796.253-1.559.703-2.121.45-.563 1.06-.879 1.697-.879h12c.637 0 1.247.316 1.697.879.45.562.703 1.325.703 2.121v14c0 .796-.253 1.559-.703 2.121-.45.563-1.06.879-1.697.879h-.8v1c0 .796-.253 1.559-.703 2.121-.45.563-1.06.879-1.697.879h-5.6c-.637 0-1.247-.316-1.697-.879-.45-.562-.703-1.325-.703-2.121zm-.8-2h12c.212 0 .416-.105.566-.293.15-.187.234-.442.234-.707v-14c0-.265-.084-.52-.234-.707-.15-.188-.354-.293-.566-.293h-12c-.212 0-.416.105-.566.293-.15.187-.234.442-.234.707v14c0 .265.084.52.234.707.15.188.354.293.566.293zm2.4 2v1c0 .265.084.52.234.707.15.188.354.293.566.293h5.6c.212 0 .416-.105.566-.293.15-.187.234-.442.234-.707v-1z" fill="#2b2d42"/></g></g></svg>